<?xml version="1.0" encoding="utf-8"?>
<!-- Generator: Adobe Illustrator 16.0.0, SVG Export Plug-In . SVG Version: 6.00 Build 0)  -->
<!DOCTYPE svg PUBLIC "-//W3C//DTD SVG 1.1//EN" "http://www.w3.org/Graphics/SVG/1.1/DTD/svg11.dtd">
<svg version="1.1" id="Objects" xmlns="http://www.w3.org/2000/svg" xmlns:xlink="http://www.w3.org/1999/xlink" x="0px" y="0px"
	 width="6500px" height="4000px" viewBox="0 0 6500 4000" enable-background="new 0 0 6500 4000" xml:space="preserve">
<rect y="3542.908" display="none" fill="#DDDEDF" width="6500" height="457.092"/>
<g>
	<g id="Monitor">
		<rect x="3199.878" y="2032.345" fill="#BCBCBC" width="100.244" height="400.976"/>
		<path fill="#D6D6D6" d="M3656.445,2284.533h-812.892c-3.428,0-6.232-2.805-6.232-6.232v-549.348c0-3.428,2.805-6.232,6.232-6.232
			h812.892c3.429,0,6.232,2.805,6.232,6.232v549.348C3662.678,2281.729,3659.874,2284.533,3656.445,2284.533z"/>
		<rect x="2846.225" y="1730.511" fill="#282130" width="807.549" height="521.746"/>
		<path fill="#D6D6D6" d="M3435.869,2452.813h-371.738v-5.841c0-7.539,6.111-13.651,13.651-13.651h344.437
			c7.539,0,13.65,6.112,13.65,13.651V2452.813z"/>
	</g>
	<g>
		<path fill="#F6892E" d="M3030.167,1782.625h-123.68c-4.639,0-8.433-3.795-8.433-8.433l0,0c0-4.638,3.794-8.433,8.433-8.433h123.68
			c4.638,0,8.433,3.795,8.433,8.433l0,0C3038.6,1778.831,3034.805,1782.625,3030.167,1782.625z"/>
		<path fill="#FCF2CB" d="M3030.167,1811.918h-123.68c-4.639,0-8.433-3.795-8.433-8.433l0,0c0-4.638,3.794-8.433,8.433-8.433h123.68
			c4.638,0,8.433,3.794,8.433,8.433l0,0C3038.6,1808.123,3034.805,1811.918,3030.167,1811.918z"/>
		<path fill="#1D4463" d="M2971.138,1841.211h-64.651c-4.639,0-8.433-3.795-8.433-8.433l0,0c0-4.638,3.794-8.433,8.433-8.433h64.651
			c4.638,0,8.433,3.795,8.433,8.433l0,0C2979.57,1837.416,2975.775,1841.211,2971.138,1841.211z"/>
		<path fill="#BB3026" d="M3129.141,1841.211h-126.6c-4.638,0-8.433-3.795-8.433-8.433l0,0c0-4.638,3.795-8.433,8.433-8.433h126.6
			c4.638,0,8.433,3.795,8.433,8.433l0,0C3137.573,1837.416,3133.778,1841.211,3129.141,1841.211z"/>
		<path fill="#1D4463" d="M3187.725,1811.918h-123.681c-4.638,0-8.433-3.795-8.433-8.433l0,0c0-4.638,3.794-8.433,8.433-8.433
			h123.681c4.638,0,8.433,3.794,8.433,8.433l0,0C3196.158,1808.123,3192.363,1811.918,3187.725,1811.918z"/>
		<path fill="#FCF2CB" d="M3087.479,2144.188h-123.681c-4.638,0-8.433-3.795-8.433-8.433l0,0c0-4.638,3.794-8.433,8.433-8.433
			h123.681c4.638,0,8.433,3.795,8.433,8.433l0,0C3095.911,2140.393,3092.116,2144.188,3087.479,2144.188z"/>
		<path fill="#1D4463" d="M3087.479,2173.48h-123.681c-4.638,0-8.433-3.795-8.433-8.433l0,0c0-4.638,3.794-8.433,8.433-8.433
			h123.681c4.638,0,8.433,3.795,8.433,8.433l0,0C3095.911,2169.686,3092.116,2173.48,3087.479,2173.48z"/>
		<path fill="#1D4463" d="M3028.449,2202.773h-64.652c-4.638,0-8.433-3.795-8.433-8.433l0,0c0-4.639,3.794-8.433,8.433-8.433h64.652
			c4.638,0,8.433,3.794,8.433,8.433l0,0C3036.882,2198.979,3033.087,2202.773,3028.449,2202.773z"/>
		<path fill="#FCF2CB" d="M3186.452,2202.773h-126.6c-4.638,0-8.433-3.795-8.433-8.433l0,0c0-4.639,3.795-8.433,8.433-8.433h126.6
			c4.638,0,8.433,3.794,8.433,8.433l0,0C3194.885,2198.979,3191.09,2202.773,3186.452,2202.773z"/>
		<path fill="#F6892E" d="M3245.037,2173.48h-123.68c-4.638,0-8.433-3.795-8.433-8.433l0,0c0-4.638,3.795-8.433,8.433-8.433h123.68
			c4.638,0,8.433,3.795,8.433,8.433l0,0C3253.47,2169.686,3249.675,2173.48,3245.037,2173.48z"/>
		<path fill="#FCF2CB" d="M3082.982,1972.789h-123.681c-4.638,0-8.433-3.794-8.433-8.433l0,0c0-4.638,3.795-8.433,8.433-8.433
			h123.681c4.638,0,8.433,3.795,8.433,8.433l0,0C3091.415,1968.995,3087.62,1972.789,3082.982,1972.789z"/>
		<path fill="#F6892E" d="M3082.982,2002.082h-123.681c-4.638,0-8.433-3.795-8.433-8.433l0,0c0-4.638,3.795-8.433,8.433-8.433
			h123.681c4.638,0,8.433,3.794,8.433,8.433l0,0C3091.415,1998.287,3087.62,2002.082,3082.982,2002.082z"/>
		<path fill="#FCF2CB" d="M3240.541,2002.082H3116.86c-4.639,0-8.433-3.795-8.433-8.433l0,0c0-4.638,3.794-8.433,8.433-8.433
			h123.681c4.638,0,8.433,3.794,8.433,8.433l0,0C3248.974,1998.287,3245.179,2002.082,3240.541,2002.082z"/>
		<path fill="#FCF2CB" d="M3082.982,1881.496h-123.681c-4.638,0-8.433-3.795-8.433-8.433l0,0c0-4.638,3.795-8.433,8.433-8.433
			h123.681c4.638,0,8.433,3.794,8.433,8.433l0,0C3091.415,1877.701,3087.62,1881.496,3082.982,1881.496z"/>
		<path fill="#1D4463" d="M3254.301,1940.36h-197.485c-4.638,0-8.433-3.795-8.433-8.433l0,0c0-4.638,3.795-8.433,8.433-8.433
			h197.485c4.638,0,8.433,3.794,8.433,8.433l0,0C3262.733,1936.565,3258.938,1940.36,3254.301,1940.36z"/>
		<path fill="#1D4463" d="M3023.953,1910.789h-64.651c-4.638,0-8.433-3.795-8.433-8.433l0,0c0-4.638,3.795-8.433,8.433-8.433h64.651
			c4.638,0,8.433,3.795,8.433,8.433l0,0C3032.386,1906.994,3028.591,1910.789,3023.953,1910.789z"/>
		<path fill="#BB3026" d="M3023.953,1940.36h-64.651c-4.638,0-8.433-3.795-8.433-8.433l0,0c0-4.638,3.795-8.433,8.433-8.433h64.651
			c4.638,0,8.433,3.794,8.433,8.433l0,0C3032.386,1936.565,3028.591,1940.36,3023.953,1940.36z"/>
		<path fill="#F6892E" d="M3027.543,2077.98h-123.681c-4.638,0-8.433-3.795-8.433-8.433l0,0c0-4.638,3.795-8.433,8.433-8.433
			h123.681c4.638,0,8.433,3.795,8.433,8.433l0,0C3035.976,2074.186,3032.181,2077.98,3027.543,2077.98z"/>
		<path fill="#F6892E" d="M3084.854,2107.273h-123.681c-4.638,0-8.433-3.795-8.433-8.433l0,0c0-4.638,3.795-8.433,8.433-8.433
			h123.681c4.638,0,8.433,3.795,8.433,8.433l0,0C3093.288,2103.479,3089.493,2107.273,3084.854,2107.273z"/>
		<path fill="#BB3026" d="M3242.413,2107.273h-123.681c-4.638,0-8.433-3.795-8.433-8.433l0,0c0-4.638,3.795-8.433,8.433-8.433
			h123.681c4.638,0,8.433,3.795,8.433,8.433l0,0C3250.846,2103.479,3247.051,2107.273,3242.413,2107.273z"/>
		<path fill="#BB3026" d="M3198.861,2045.552h-197.484c-4.638,0-8.433-3.795-8.433-8.433l0,0c0-4.638,3.795-8.433,8.433-8.433
			h197.484c4.638,0,8.433,3.795,8.433,8.433l0,0C3207.294,2041.757,3203.499,2045.552,3198.861,2045.552z"/>
		<path fill="#FCF2CB" d="M2968.514,2045.552h-64.651c-4.638,0-8.433-3.795-8.433-8.433l0,0c0-4.638,3.795-8.433,8.433-8.433h64.651
			c4.639,0,8.433,3.795,8.433,8.433l0,0C2976.947,2041.757,2973.152,2045.552,2968.514,2045.552z"/>
		<path fill="#FCF2CB" d="M3281.688,1910.789h-64.651c-4.638,0-8.433-3.795-8.433-8.433l0,0c0-4.638,3.795-8.433,8.433-8.433h64.651
			c4.638,0,8.433,3.795,8.433,8.433l0,0C3290.121,1906.994,3286.326,1910.789,3281.688,1910.789z"/>
		<path fill="#F6892E" d="M3181.956,1910.789h-126.6c-4.638,0-8.433-3.795-8.433-8.433l0,0c0-4.638,3.795-8.433,8.433-8.433h126.6
			c4.638,0,8.433,3.795,8.433,8.433l0,0C3190.389,1906.994,3186.594,1910.789,3181.956,1910.789z"/>
		<path fill="#F6892E" d="M3170.268,1881.496h-53.407c-4.639,0-8.433-3.795-8.433-8.433l0,0c0-4.638,3.794-8.433,8.433-8.433h53.407
			c4.638,0,8.433,3.794,8.433,8.433l0,0C3178.7,1877.701,3174.906,1881.496,3170.268,1881.496z"/>
	</g>
</g>
<g>
	<g>
		<path fill="#589742" d="M1187.458,2822.787c-26.94,14.068-120.746,119.698-130.971,35.18
			c-10.207-84.519,52.944-63.168,52.944-63.168c92.886,25.083,160.688-76.151,160.688-76.151
			c0.588-18.795-6.528-42.701-16.551-66.589c-0.735-1.784-1.489-3.568-2.262-5.333c-21.754-49.854-54.562-98.054-54.562-98.054
			c-38.085,71.518-199.693,197.836-215.489,159.751c-15.779-38.067,26.94-51.087,26.94-51.087
			c150.464-31.575,156.036-142.097,156.036-142.097c-2.814-7.411-8.312-15.318-15.54-23.373c-1.25-1.379-2.538-2.758-3.862-4.155
			c-39.795-41.248-120.838-84.851-120.838-84.851c-5.572,82.661-63.168,124.461-63.168,124.461
			c-99.377,5.572-46.434-56.658-46.434-56.658c77.089-20.431,70.58-95.663,70.58-95.663c-5.407,0-13.001-2.942-21.718-7.668
			c-1.489-0.81-3.034-1.674-4.597-2.611c-34.536-20.174-82.349-63.095-82.349-63.095c-3.66,32.917-41.506,44.227-42.683,44.558
			c10.207-5.682,14.822-55.701,14.822-55.701c-2.905-1.251-6.418-3.348-10.372-6.105c-1.397-0.994-2.869-2.061-4.376-3.2
			c-24.201-18.279-60.558-55.464-76.979-72.64c-5.351-5.608-8.588-9.084-8.588-9.084c0.423,1.361,0.625,2.961,0.625,4.744
			c0,2.888-0.533,6.29-1.526,10.115c-6.014,23.63-28.872,62.892-46.802,91.378c-1.048,1.691-2.096,3.347-3.126,4.946
			c-11.181,17.599-19.75,29.994-19.75,29.994c28.798,72.436,151.384,49.229,99.378,112.084
			c-52.006,62.855-126.318-71.223-126.318-71.223c1.435,8.293-7.006,24.881-19.364,43.859c-1.067,1.637-2.151,3.273-3.273,4.928
			c-9.066,13.498-19.806,27.916-30.177,41.267c-1.14,1.472-2.299,2.942-3.421,4.396c-20.394,25.929-38.489,46.728-38.489,46.728
			s9.287,77.089,118.871,103.092c109.602,26.003,93.824,47.372,93.824,47.372c-107.745,46.434-221.062-120.746-221.062-120.746
			c-22.417,24.329-40.476,56.383-54.654,88.527c-0.791,1.784-1.563,3.568-2.317,5.352c-27.621,64.529-39.611,127.697-39.611,127.697
			c103.092,141.674,160.67,69.146,210.818,69.146c50.167,0,75.232,14.858,75.232,28.779c0,13.939-12.064,60.373-109.584,60.373
			c-97.52,0-184.833-99.378-184.833-99.378c8.588,54.14,19.272,100.371,31.593,139.67c0.625,1.967,1.25,3.936,1.876,5.885
			c117.564,363.544,378.679,116.057,412.442,82.018c2.372-2.391,3.623-3.733,3.623-3.733s0.275,3.163,1.636,8.128c0,0,0,0,0,0.019
			c0.957,3.513,2.464,7.871,4.818,12.688c-0.019,0.02,0,0.037,0,0.037c5.701,11.77,16.385,26.04,36.264,35.786
			c96.803,47.427,327.868-16.716,317.644-131.154c-1.875-21.001-1.306-41.304,0.864-60.447c0.221-1.968,0.46-3.935,0.717-5.866
			c10.832-82.238,50.425-141.949,50.425-141.949S1214.38,2808.738,1187.458,2822.787z M1012.849,2858.666
			c-4.542,8.68-20.707,9.157-36.099,1.084c-15.393-8.072-24.165-21.626-19.622-30.306c4.542-8.661,20.707-9.158,36.099-1.085
			C1008.6,2836.433,1017.391,2850.004,1012.849,2858.666z M828.897,2841.692c-22.435,11.144-46.14,9.065-52.944-4.635
			c-6.786-13.7,5.885-33.837,28.339-44.962c22.454-11.145,46.158-9.066,52.943,4.634
			C864.04,2810.43,851.351,2830.566,828.897,2841.692z M807.639,2673.372c-0.791-8.975,13.921-17.618,32.881-19.291
			c18.941-1.691,34.958,4.229,35.749,13.204c0.809,8.974-13.902,17.617-32.862,19.29
			C824.447,2688.268,808.448,2682.364,807.639,2673.372z M1017.777,2491.554c7.19-17.617,19.805-29.11,28.191-25.69
			c8.368,3.421,9.324,20.468,2.133,38.085c-7.19,17.599-19.824,29.11-28.191,25.69S1010.586,2509.171,1017.777,2491.554z
			 M752.617,3056.52c-35.492,14.527-68.759,15.355-74.294,1.839c-5.535-13.535,18.757-36.282,54.249-50.811
			c35.492-14.546,68.759-15.355,74.294-1.839C812.401,3019.225,788.127,3041.973,752.617,3056.52z M1047.476,2989.195
			c-3.439,14.896-22.399,23.244-42.333,18.646s-33.322-20.412-29.883-35.308c3.438-14.896,22.398-23.244,42.333-18.647
			C1037.545,2958.484,1050.915,2974.299,1047.476,2989.195z"/>
		<g opacity="0.3">
			<path fill="#FFFFFF" d="M1254.046,2915.912c-0.257,1.932-0.496,3.898-0.717,5.866c-105.023,26.261-184.65,22.767-237.263,13.131
				c-57.706-10.574-92.904-29.626-106.807-38.416c-2.152-1.38-3.789-2.482-4.929-3.292c-2.041,1.876-4.119,3.733-6.216,5.535
				c-36.117,31.318-81.429,54.746-134.888,69.752c-45.827,12.854-97.704,19.585-154.215,19.971
				c-1.729,0.019-3.457,0.019-5.167,0.019c-51.363,0-96.95-5.259-127.808-10.04c-0.625-1.949-1.251-3.918-1.876-5.885
				c31.63,5.02,80.197,10.776,134.943,10.39c86.56-0.606,206.423-17.176,289.397-91.874c1.25-1.141,2.501-2.281,3.733-3.439
				l1.71-1.6l1.857,1.435c0.073,0.055,1.324,1.011,3.788,2.611c11.181,7.374,47.225,28.431,107.892,39.482
				C1069.819,2939.083,1149.17,2942.448,1254.046,2915.912z"/>
		</g>
		<g opacity="0.3">
			<path fill="#FFFFFF" d="M1253.568,2652.059c-29.203,23.152-58.589,42.59-87.994,58.185
				c-45.625,24.183-91.359,39.188-135.899,44.595c-60.134,7.282-101.253-4.744-116.774-10.574c-2.722-1.029-4.671-1.857-5.774-2.354
				c-1.747,0.588-3.512,1.177-5.26,1.747c-42.995,13.921-85.897,20.909-128.12,20.909c-18.684,0-37.239-1.361-55.628-4.12
				c-49.56-7.392-97.925-24.716-143.789-51.509c-35.032-20.486-63.26-43.474-83.783-62.672c0.754-1.783,1.527-3.567,2.317-5.352
				c20.394,19.199,48.88,42.591,84.445,63.353c70.267,41.027,183.308,79.848,324.43,33.634c1.545-0.514,3.108-1.029,4.671-1.563
				l1.066-0.367l1.03,0.496c0.074,0.037,1.526,0.735,4.285,1.802c13.02,5.058,55.04,18.573,116.646,11.034
				c53.734-6.584,131.394-30.729,221.87-102.577C1252.079,2648.49,1252.833,2650.274,1253.568,2652.059z"/>
		</g>
		<g opacity="0.3">
			<path fill="#FFFFFF" d="M1148.692,2491.866c-11.622,13.204-23.961,25.212-36.963,35.97
				c-31.704,26.225-67.38,45.11-106.016,56.089c-30.417,8.661-58.001,10.997-78.892,10.997c-14.675,0-26.058-1.141-32.844-2.06
				c-3.678-0.515-5.995-0.956-6.767-1.104c-1.618-0.019-3.218-0.056-4.818-0.092c-117.657-2.667-197.854-43.786-244.6-78.101
				c-17.764-13.02-32.164-26.096-43.418-37.625c1.122-1.453,2.281-2.924,3.421-4.396c11.181,11.512,25.598,24.642,43.491,37.735
				c45.9,33.635,124.479,73.908,239.782,76.832c2.133,0.055,4.303,0.092,6.473,0.129l0.534,0.073
				c0.092,0.019,1.655,0.35,4.542,0.791c13.921,2.077,58.35,6.73,111.845-8.552c40.789-11.641,92.739-36.853,140.368-90.844
				C1146.155,2489.108,1147.442,2490.487,1148.692,2491.866z"/>
		</g>
		<g opacity="0.3">
			<path fill="#FFFFFF" d="M963.251,2367.332c-14.62,28.798-34.811,46.728-52.631,57.725c-24.697,15.245-48.53,20.008-59.508,21.479
				c-2.28,0.294-4.009,0.46-5.076,0.533c-1.526,1.729-3.071,3.421-4.634,5.057c-27.4,28.982-57.449,43.639-89.502,43.639
				c-2.317,0-4.634-0.073-6.951-0.238c-47.409-3.09-89.355-36.577-116.977-65.247c1.122-1.654,2.207-3.291,3.273-4.928
				c27.088,28.228,68.409,61.696,114.071,64.676c33.708,2.188,65.338-12.542,94.044-43.822c1.104-1.177,2.189-2.409,3.274-3.642
				l0.772-0.882l1.177-0.056c0.074,0,1.765-0.092,4.689-0.46c9.893-1.25,34.094-5.719,58.663-20.928
				c22.067-13.7,39.022-32.255,50.719-55.518C960.217,2365.658,961.762,2366.522,963.251,2367.332z"/>
		</g>
		<g opacity="0.3">
			<path fill="#FFFFFF" d="M838.073,2284.377c-14.583,14.086-30.361,21.773-38.36,25.064c-2.391,0.993-4.101,1.582-4.855,1.839
				c-1.618,1.122-3.31,2.134-5.057,3.034c-10.004,5.333-21.792,7.559-34.444,7.559c-18.408,0-38.673-4.671-58.056-11.236
				c1.03-1.6,2.079-3.255,3.126-4.946c31.446,10.519,64.769,15.814,87.295,3.493c1.49-0.809,2.924-1.691,4.321-2.666l0.368-0.258
				l0.405-0.129c0.055-0.018,1.839-0.569,4.818-1.783c6.639-2.686,19.18-8.625,31.539-19.125c1.563-1.324,3.071-2.686,4.524-4.046
				C835.205,2282.316,836.676,2283.383,838.073,2284.377z"/>
		</g>
		<g>
			<path fill="#467437" d="M909.591,2890.075c-0.11,2.151-0.203,4.284-0.331,6.418c-1.766,34.94-3.954,69.88-6.05,103.331
				c-1.655,26.499-3.292,52.668-4.652,77.732c-0.019,0.02,0,0.037,0,0.037c-4.8,87.682-6.326,162.031,5.94,190.535l-10.133,4.358
				c-13.995-32.55-11.623-113.317-5.885-212.032c1.14-19.787,2.427-40.311,3.733-61.312c2.023-32.513,4.156-66.46,5.903-100.407
				c0.129-2.557,0.258-5.112,0.387-7.668c2.556-50.977,4.193-101.713,3.365-147.411c-0.055-1.932-0.091-3.844-0.128-5.757
				c-0.276-12.063-0.735-23.759-1.397-34.977c-1.986-33.543-8.533-71.518-17.948-111.257c-0.423-1.857-0.864-3.696-1.324-5.554
				c-10.61-43.859-24.587-89.687-39.666-133.987c-0.681-1.968-1.361-3.953-2.042-5.921c-16.274-47.391-33.726-92.813-49.56-131.891
				c-0.699-1.729-1.379-3.438-2.078-5.131c-16.532-40.604-31.115-73.926-40.494-94.871c0.993-3.825,1.526-7.228,1.526-10.115
				c0-1.783-0.202-3.383-0.625-4.744c0,0,3.237,3.476,8.588,9.084c9.342,20.836,24.127,54.544,40.917,95.811
				c0.699,1.691,1.397,3.384,2.078,5.094c15.796,39.004,33.23,84.335,49.56,131.725c0.606,1.784,1.213,3.567,1.839,5.37
				c15.833,46.397,30.526,94.596,41.505,140.57c0.46,1.931,0.919,3.843,1.36,5.756c9.104,39.022,15.411,76.335,17.379,109.418
				c0.68,11.549,1.158,23.575,1.434,35.988c0.037,1.986,0.073,3.991,0.11,5.995C913.692,2789.594,912.092,2839.725,909.591,2890.075
				z"/>
		</g>
	</g>
	<g>
		<path fill="#6FBE44" d="M677.669,2696.515c0,0,28.312,65.813,24.306,148.665c-0.091,1.946-0.207,3.925-0.34,5.9
			c-1.278,19.224-4.337,39.303-9.927,59.633c-30.465,110.781,185.46,215.096,289.168,185.689
			c21.298-6.046,34.356-18.183,42.064-28.747c0,0,0.021-0.015,0.006-0.036c3.175-4.321,5.437-8.341,7.004-11.627
			c0.003-0.018,0.003-0.018,0.003-0.018c2.225-4.643,3.06-7.706,3.06-7.706s0.991,1.544,2.899,4.319
			c27.153,39.514,239.956,329.593,420.458-7.164c0.963-1.807,1.929-3.631,2.895-5.456c19.131-36.472,37.887-80.058,55.99-131.798
			c0,0-103.634,82.217-199.591,64.829c-95.958-17.388-99.548-65.229-97.063-78.944c2.482-13.698,29.795-23.85,79.158-14.905
			c49.345,8.942,93.068,90.574,219.77-30.447c0,0-0.535-64.294-16.208-132.714c-0.424-1.89-0.866-3.783-1.326-5.679
			c-8.219-34.158-20.273-68.918-37.993-96.854c0,0-141.31,144.297-239.048,79.396c0,0-11.715-23.839,100.767-29.884
			c112.464-6.047,135.347-80.244,135.347-80.244s-14.097-23.692-29.541-52.843c-0.845-1.63-1.722-3.283-2.582-4.935
			c-7.825-14.986-15.822-31.088-22.336-45.985c-0.809-1.829-1.584-3.633-2.342-5.434c-8.776-20.877-14.124-38.704-11.234-46.608
			c0,0-97.028,118.68-136.993,47.559s76.518-26.429,117.77-92.569c0,0-6.223-13.724-14.086-33.034
			c-0.729-1.758-1.465-3.574-2.194-5.425c-12.563-31.227-28.055-73.935-29.759-98.259c-0.295-3.941-0.213-7.384,0.301-10.225
			c0.318-1.756,0.802-3.293,1.461-4.557c0,0-3.805,2.842-10.07,7.407c-19.221,13.973-61.625,44.078-88.697,57.749
			c-1.687,0.854-3.324,1.641-4.876,2.369c-4.382,2.009-8.212,3.445-11.294,4.158c0,0-4.377,50.041,4.652,57.451
			c-1.099-0.535-36.321-18.411-34.053-51.454c0,0-54.7,33.709-92.279,47.401c-1.705,0.644-3.379,1.219-4.99,1.749
			c-9.419,3.097-17.417,4.638-22.737,3.674c0,0-19.819,72.865,52.392,106.714c0,0,41,70.674-55.792,47.472
			c0,0-49.221-51.399-39.964-133.729c0,0-87.519,28.453-134.031,61.944c-1.552,1.139-3.064,2.267-4.542,3.4
			c-8.547,6.637-15.367,13.438-19.458,20.229c0,0-14.223,109.743,128.2,167.641c0,0,39.713,20.429,17.4,55.071
			c-22.334,34.658-158.83-118.451-183.552-195.613c0,0-40.875,41.577-71.171,86.754c-1.075,1.6-2.135,3.221-3.176,4.844
			c-14.122,21.719-25.387,43.973-28.159,62.571c0,0,48.666,111.702,144.536,103.582c0,0,65.945-9.748,40.832,71.597
			c-25.13,81.341-98.599-39.322-122.599-57.969C760.115,2746.795,677.669,2696.515,677.669,2696.515z M974.226,2805.535
			c16.585-5.199,32.402-1.829,35.327,7.504c2.922,9.351-8.126,21.123-24.711,26.322s-32.405,1.846-35.327-7.505
			C946.59,2822.524,957.66,2810.737,974.226,2805.535z M1113.678,2798.659c9.12-12.271,32.814-10.089,52.921,4.88
			c20.11,14.951,28.987,37.024,19.868,49.295c-9.138,12.268-32.833,10.086-52.922-4.88
			C1113.436,2833.003,1104.54,2810.927,1113.678,2798.659z M1146.927,2692.736c-18.358-5.027-31.293-16.155-28.896-24.841
			c2.378-8.689,19.194-11.66,37.531-6.618c18.357,5.027,31.292,16.155,28.914,24.844
			C1182.075,2694.826,1165.28,2697.781,1146.927,2692.736z M1001.233,2506.843c-8.843,1.874-19.222-11.706-23.159-30.305
			c-3.934-18.617,0.046-35.221,8.89-37.095c8.861-1.87,19.225,11.688,23.159,30.306
			C1014.057,2488.366,1010.076,2504.97,1001.233,2506.843z M1125.979,3013.271c7.856-12.313,40.446-5.586,72.775,15.056
			c32.333,20.624,52.181,47.338,44.32,59.669c-7.856,12.313-40.442,5.567-72.775-15.057
			C1137.951,3052.295,1118.122,3025.584,1125.979,3013.271z M927.869,2924.706c20.435-0.969,37.602,10.626,38.33,25.896
			c0.728,15.271-15.265,28.444-35.7,29.414c-20.434,0.97-37.602-10.626-38.33-25.896
			C891.441,2938.85,907.416,2925.673,927.869,2924.706z"/>
		<g opacity="0.3">
			<path fill="#FFFFFF" d="M701.975,2845.18c-0.091,1.946-0.207,3.925-0.34,5.9c98.658,44.565,177.632,55.325,231.12,55.225
				c58.667-0.115,96.698-12.586,111.945-18.757c2.363-0.974,4.17-1.767,5.436-2.359c1.674,2.209,3.388,4.407,5.129,6.555
				c29.955,37.255,70.363,68.388,120.289,92.685c42.801,20.819,92.647,36.691,148.184,47.148c1.698,0.326,3.398,0.634,5.081,0.939
				c50.54,9.158,96.334,12.111,127.55,12.908c0.963-1.807,1.929-3.631,2.895-5.456c-32.018-0.7-80.833-3.695-134.633-13.837
				c-85.065-16.031-200.053-53.706-268.379-142.002c-1.027-1.346-2.054-2.69-3.06-4.05l-1.397-1.88l-2.083,1.08
				c-0.083,0.042-1.483,0.76-4.193,1.895c-12.316,5.263-51.537,19.555-113.203,19.613
				C879.119,2900.828,800.439,2889.99,701.975,2845.18z"/>
		</g>
		<g opacity="0.3">
			<path fill="#FFFFFF" d="M749.492,2585.639c24.606,27.989,50.056,52.355,76.209,72.942
				c40.582,31.931,82.908,54.851,125.771,68.112c57.872,17.887,100.476,13.385,116.788,10.416c2.861-0.528,4.927-0.995,6.102-1.287
				c1.614,0.891,3.246,1.784,4.863,2.657c39.824,21.364,80.793,35.89,122.339,43.418c18.384,3.331,36.885,5.301,55.472,5.865
				c50.084,1.563,100.762-6.859,150.668-25.046c38.124-13.911,69.998-31.497,93.615-46.729c-0.424-1.89-0.866-3.783-1.326-5.679
				c-23.49,15.255-55.69,33.192-94.388,47.28c-76.456,27.841-194.607,45.884-325.228-24.752c-1.428-0.781-2.875-1.566-4.317-2.37
				l-0.984-0.552l-1.102,0.305c-0.079,0.022-1.633,0.451-4.538,1.01c-13.713,2.654-57.47,8.461-116.744-9.941
				c-51.699-16.06-123.809-53.665-200.025-140.494C751.593,2582.395,750.533,2584.016,749.492,2585.639z"/>
		</g>
		<g opacity="0.3">
			<path fill="#FFFFFF" d="M881.249,2446.714c9.082,15.064,19.083,29.081,29.958,41.984c26.52,31.456,58.257,56.4,94.316,74.093
				c28.385,13.945,55.111,21.162,75.667,24.887c14.439,2.617,25.843,3.524,32.685,3.83c3.71,0.148,6.069,0.128,6.855,0.121
				c1.595,0.27,3.176,0.52,4.757,0.769c116.247,18.354,202.491-7.807,254.606-33.236c19.801-9.644,36.301-19.942,49.431-29.281
				c-0.845-1.63-1.722-3.283-2.582-4.935c-13.054,9.334-29.582,19.684-49.522,29.377c-51.162,24.911-135.663,50.527-249.64,32.847
				c-2.108-0.327-4.25-0.677-6.392-1.028l-0.538-0.022c-0.094,0.002-1.691,0.049-4.611-0.032
				c-14.068-0.437-58.615-3.781-108.528-28.355c-38.06-18.728-84.682-52.799-121.921-114.417
				C884.238,2444.452,882.726,2445.58,881.249,2446.714z"/>
		</g>
		<g opacity="0.3">
			<path fill="#FFFFFF" d="M1085.923,2357.239c9.25,30.944,25.922,52.187,41.496,66.185c21.583,19.404,44.185,28.34,54.725,31.745
				c2.191,0.696,3.863,1.167,4.899,1.431c1.194,1.973,2.412,3.913,3.658,5.802c21.794,33.403,48.748,53.183,80.287,58.897
				c2.28,0.413,4.573,0.754,6.883,1.005c47.2,5.413,94.445-20.06,126.735-43.344c-0.809-1.829-1.584-3.633-2.342-5.434
				c-31.687,22.946-78.314,48.511-123.775,43.302c-33.559-3.857-62.055-23.991-84.724-59.889c-0.876-1.355-1.724-2.762-2.572-4.167
				l-0.603-1.006l-1.148-0.265c-0.072-0.013-1.721-0.405-4.532-1.289c-9.512-2.994-32.528-11.706-53.991-31.051
				c-19.271-17.416-32.646-38.696-40.007-63.672C1089.208,2356.134,1087.534,2356.709,1085.923,2357.239z"/>
		</g>
		<g opacity="0.3">
			<path fill="#FFFFFF" d="M1223.887,2297.934c11.837,16.46,25.992,26.838,33.276,31.503c2.175,1.403,3.753,2.287,4.45,2.675
				c1.392,1.393,2.876,2.689,4.435,3.888c8.893,7.03,20.095,11.322,32.544,13.578c18.113,3.282,38.886,2.3,59.129-0.704
				c-0.729-1.758-1.465-3.574-2.194-5.425c-32.818,4.743-66.551,4.013-86.52-12.128c-1.321-1.062-2.575-2.186-3.776-3.394
				l-0.316-0.319l-0.375-0.199c-0.051-0.027-1.708-0.889-4.423-2.613c-6.054-3.826-17.335-11.907-27.623-24.442
				c-1.302-1.582-2.543-3.189-3.73-4.788C1227.077,2296.418,1225.439,2297.205,1223.887,2297.934z"/>
		</g>
		<g>
			<path fill="#5C9B43" d="M1045.518,2881.174c-0.275,2.137-0.565,4.252-0.818,6.374c-4.493,34.695-8.57,69.466-12.471,102.755
				c-3.096,26.369-6.152,52.41-9.282,77.316c0.015,0.021-0.006,0.036-0.006,0.036c-10.911,87.133-22.666,160.563-39.817,186.423
				l9.193,6.095c19.574-29.532,31.641-109.429,43.596-207.585c2.407-19.674,4.799-40.098,7.259-60.994
				c3.807-32.353,7.76-66.137,12.094-99.851c0.329-2.538,0.658-5.077,0.987-7.614c6.574-50.615,14.01-100.831,22.973-145.649
				c0.398-1.891,0.775-3.766,1.153-5.642c2.423-11.82,4.96-23.247,7.612-34.167c7.935-32.651,21.148-68.85,37.498-106.273
				c0.747-1.753,1.51-3.483,2.293-5.229c18.261-41.265,40.185-83.865,62.921-124.768c1.021-1.814,2.044-3.647,3.065-5.462
				c24.463-43.729,49.734-85.313,72.282-120.94c0.996-1.576,1.971-3.138,2.959-4.679c23.507-37.006,43.798-67.193,56.761-86.131
				c-0.295-3.941-0.213-7.384,0.301-10.225c0.318-1.756,0.802-3.293,1.461-4.557c0,0-3.805,2.842-10.07,7.407
				c-12.907,18.836-33.466,49.367-57.344,86.979c-0.989,1.54-1.979,3.08-2.953,4.642c-22.498,35.563-47.734,77.058-72.252,120.776
				c-0.915,1.647-1.83,3.295-2.767,4.956c-23.852,42.831-46.904,87.638-65.904,130.917c-0.796,1.818-1.59,3.618-2.365,5.422
				c-15.916,36.773-28.775,72.364-36.61,104.566c-2.729,11.242-5.343,22.991-7.828,35.156c-0.39,1.947-0.784,3.913-1.177,5.879
				C1059.399,2781.572,1052.035,2831.184,1045.518,2881.174z"/>
		</g>
	</g>
	<g>
		<path fill="#D79128" d="M1113.121,3605.396h-336.35c-17.597,0-32.37-13.251-34.276-30.744l-32.77-300.701
			c-2.223-20.4,13.755-38.215,34.276-38.215h401.89c20.521,0,36.5,17.814,34.277,38.215l-32.77,300.701
			C1145.491,3592.145,1130.718,3605.396,1113.121,3605.396z"/>
		<path fill="#FCAF17" d="M1201.995,3335.032H692.752c-13.644,0-24.705-11.061-24.705-24.705v-49.887
			c0-13.644,11.061-24.705,24.705-24.705h509.243c13.645,0,24.705,11.062,24.705,24.705v49.887
			C1226.7,3323.972,1215.64,3335.032,1201.995,3335.032z"/>
	</g>
</g>
<g>
	<path fill="#D7D6D6" d="M4753.559,2450.95h-310.834c-6.031,0-10.965-4.935-10.965-10.965l0,0c0-6.031,4.934-10.966,10.965-10.966
		h310.834c6.031,0,10.965,4.935,10.965,10.966l0,0C4764.523,2446.016,4759.59,2450.95,4753.559,2450.95z"/>
	<path fill="#D7D6D6" d="M4434.826,2412.098l-68.053-362.355c-1.269-6.755-7.168-11.649-14.041-11.649h-235.084
		c-8.932,0-15.674,8.106-14.046,16.89l67.168,362.355c1.255,6.771,7.161,11.682,14.047,11.682h235.968
		C4429.732,2429.02,4436.477,2420.891,4434.826,2412.098z"/>
	<path fill="#E9E8E8" d="M4428.581,2412.098l-68.052-362.355c-1.27-6.755-7.168-11.649-14.041-11.649h-235.084
		c-8.934,0-15.675,8.106-14.047,16.89l67.169,362.355c1.255,6.771,7.161,11.682,14.046,11.682h235.969
		C4423.487,2429.02,4430.232,2420.891,4428.581,2412.098z"/>
	<path fill="#E9E8E8" d="M4433.819,2450.95h-257.122c-5.503,0-10.006-4.503-10.006-10.007v-1.917
		c0-5.503,4.503-10.007,10.006-10.007h257.122c5.503,0,10.007,4.504,10.007,10.007v1.917
		C4443.826,2446.447,4439.322,2450.95,4433.819,2450.95z"/>
	<path fill="#B7B7B8" d="M4488.193,2444.781h-27.484c-2.808,0-5.104-2.297-5.104-5.104l0,0c0-2.808,2.297-5.104,5.104-5.104h27.484
		c2.808,0,5.104,2.297,5.104,5.104l0,0C4493.298,2442.484,4491.001,2444.781,4488.193,2444.781z"/>
	<path fill="#B7B7B8" d="M4534.994,2444.781h-27.484c-2.808,0-5.105-2.297-5.105-5.104l0,0c0-2.808,2.298-5.104,5.105-5.104h27.484
		c2.807,0,5.104,2.297,5.104,5.104l0,0C4540.098,2442.484,4537.801,2444.781,4534.994,2444.781z"/>
</g>
<g>
	<g>
		<path fill="#E8D6C1" d="M4338.301,3134.513c0,0-63.459,79.472-138.779,70.575c0,0-7.71,44.48,42.701,53.377
			c50.411,8.896,121.58,0,121.58,0l67.016-94.892L4338.301,3134.513z"/>
		<path fill="#911A1D" d="M4199.521,3205.088c0,0-126.324-5.338-151.826-18.979c0,0-24.909-2.372,7.71,34.398
			s143.931,102.008,252.259,84.81l-9.693,50.411l16.988,8.303l50.75-108.268C4365.709,3255.764,4276.621,3281.594,4199.521,3205.088
			z"/>
	</g>
	<g>
		<path fill="#A86730" d="M4885.096,1695.002c0,0-42.259-90.331,66.334-111.643c108.592-21.313,161.366,56.833,177.604,117.726
			c0,0,130.92-34.506,144.114,126.86c0,0,256.765,96.414,23.343,321.719l-180.65-54.161l-100.473-315.257l-97.43-67.997
			L4885.096,1695.002z"/>
		<path fill="#E8D6C1" d="M4888.174,1638.314c0,0-22.994,141.194,55.187,243.901c0,0,56.72-18.396,72.049,0
			c7.665,9.198,20.907,35.449,30.105,58.444c0,0-17.687,7.48-17.448,9.618c1.798,16.04,1.94,14.684,1.94,14.684l132.566-26.98
			c0,0-62.851-115.55-70.517-192.197c-7.664-76.648-30.658-142.567-99.642-132.602
			C4923.432,1623.146,4888.174,1638.314,4888.174,1638.314z"/>
		<path fill="#A86730" d="M4983.533,1671.55c0,0,110.217,92.194,147.648,185.081l45.751-78.33l-96.7-102.591l-89.768-46.444
			L4983.533,1671.55z"/>
		<path fill="#A86730" d="M4888.174,1638.314c0,0,11.513,128.484,219.545,159.471l-8.158-134.596l-55.475-53.028l-60.553-12.237
			l-63.043,10.605L4888.174,1638.314z"/>
	</g>
	<g>
		<path fill="#333333" d="M5383.912,3074.514h-275.879v-37.836h275.508c7.714-0.203,155.07-6.479,155.07-180.383
			c0-91.124-28.28-126.572-58.22-164.103c-33.093-41.479-67.31-84.372-67.31-191.358h37.836c0,93.744,28.682,129.698,59.05,167.763
			c32.684,40.968,66.479,83.331,66.479,187.698c0,110.425-52.363,164.073-96.292,189.635c-47.164,27.446-94.106,28.548-96.083,28.58
			L5383.912,3074.514z"/>
	</g>
	<path fill="#E8D6C1" d="M4848.943,3246.382c0,0,91.598,184.231,52.334,217.957c-41.137,35.335-113.668,9.857-113.668,9.857
		s18.619-71.192-26.287-208.1L4848.943,3246.382z"/>
	<path fill="#923F20" d="M4901.277,2594.215l-324.992,243.038c0,0,169.984,415.999,172.964,495.023c0,0,84.954-5.964,129.701-40.258
		l-119.267-375.74l454.795-70.615l-16.432-187.334l-98.408-76.043L4901.277,2594.215z"/>
	<path fill="#E8D6C1" d="M4669.4,2393.352c0,0-15.993,25.777-79.65,17.527c0,0-56.063,7.068-73.947,24.654
		c0,0-5.276-0.229,7.417-16.662c12.692-16.433,52.302-73.086,125.064-58.309l31.44,11.655L4669.4,2393.352z"/>
	<path fill="#911A1D" d="M4651.219,2361.65c0,0,18.89,13.999,15.979,35.18c0,0,196.712,47.42,216.534,44.296
		s131.021-129.316,131.021-129.316l-88.89-68.357c0,0-31.056,123.332-59.792,128.955
		C4837.334,2378.029,4651.219,2361.65,4651.219,2361.65z"/>
	<path fill="#194967" d="M5045.515,1940.659c0,0-6.904,40.796,108.186-15.63l85.657,137.417c0,0-27.402,316.183-15.223,378.828
		c12.178,62.646,42.625,185.446,42.625,185.446s-313.6,37.551-365.358-21.313l44.655-248.856l-6.09-239.303l35.521-108.592
		L5045.515,1940.659z"/>
	<path fill="#BB3026" d="M5045.391,1940.659c0,0-97.428,90.894-86.264,376.806c11.162,285.913-64.953,300.121-64.953,300.121
		l-15.224-7.104c0,0,61.907-220.611,49.729-338.654C4916.501,2153.784,4902.293,1994.448,5045.391,1940.659z"/>
	<path fill="#E8D6C1" d="M4894.184,2467.364c0,0-34.984,25.613-114.947-19.366c0,0-78.09-20.616-111.2-6.872
		c0,0-6.872-3.124,18.741-18.117s108.413-68.901,196.955-10.399l35.439,32.265L4894.184,2467.364z"/>
	<path fill="#A04A23" d="M5266.635,2626.72l-697.181,11.593c-7.653,0.127-14.542,4.654-17.688,11.633
		c-33.1,73.432-216.092,476.438-251.321,489.988l123.756,86.479l188.898-415.577c0,0,526.798,83.076,622.225,26.417
		C5356.951,2765.037,5266.635,2626.72,5266.635,2626.72z"/>
	<path fill="#911A1D" d="M4789.948,3459.774c0,0-57.103,110.806-104.198,139.282c0,0-9.857,16.429,29.571,6.571
		c39.43-9.857,196.505-110.621,196.505-110.621l27.68,54.417l13.487-7.937l-42.535-118.769
		C4910.458,3422.719,4900.57,3460.87,4789.948,3459.774z"/>
	<path fill="#BB3026" d="M5154.904,1923.275c0,0-131.206,50.856-131.206,339.85c0,288.994-24.823,445.023-24.823,445.023
		s191.172-107.565,300.079-44.918c0,0-56.579-145.391-40.03-274.232s59.974-327.331,1.947-388.566
		C5202.844,1939.196,5154.904,1923.275,5154.904,1923.275z"/>
	<path fill="#911A1D" d="M5236.262,1986.761c0,0,159.693,38.166-36.156,553.403c0,0-69.301,24.104-312.355-68.297
		c0,0,16.069-36.157-4.018-59.258l212.924,30.131c0,0,79.345-143.623,40.174-369.604
		C5136.83,2073.137,5176.001,1988.77,5236.262,1986.761z"/>
	<g>
		<path fill="#333333" d="M5208.027,3044.214c0,22.001-46.223,51.218-101.449,51.218s-98.541-29.217-98.541-51.218
			s43.314-28.454,98.541-28.454S5208.027,3022.213,5208.027,3044.214z"/>
		<path fill="#099ECB" d="M5326.74,3010.451h-437.416c-42.393,0-77.078-34.686-77.078-77.078l0,0
			c0-42.393,34.686-77.078,77.078-77.078h437.416c42.393,0,77.078,34.686,77.078,77.078l0,0
			C5403.818,2975.766,5369.133,3010.451,5326.74,3010.451z"/>
		<path fill="#333333" d="M5333.501,3044.214h-439.44c-8.311,0-15.11-6.8-15.11-15.109v-3.544c0-8.311,6.8-15.109,15.11-15.109
			h439.44c8.311,0,15.11,6.799,15.11,15.109v3.544C5348.611,3037.414,5341.812,3044.214,5333.501,3044.214z"/>
		<path fill="#333333" d="M5108.984,3431.735v-2.868c-13.766,0-25.027-11.263-25.027-25.027v-317.783
			c0-13.766,11.262-25.027,25.027-25.027l0,0c13.765,0,25.027,11.262,25.027,25.027v317.783
			C5134.012,3417.604,5122.749,3431.735,5108.984,3431.735z"/>
		<path fill="#333333" d="M5302.033,3544.824l-195.876-113.089c-11.206-6.47-15.081-20.933-8.612-32.14l0,0
			c6.471-11.206,20.934-15.082,32.14-8.611l195.876,113.089c11.207,6.471,15.082,20.933,8.613,32.14l0,0
			C5327.703,3547.419,5313.24,3551.295,5302.033,3544.824z"/>
		<path fill="#333333" d="M4915.391,3544.824l195.877-113.089c11.207-6.47,15.082-20.933,8.611-32.14l0,0
			c-6.47-11.206-20.932-15.082-32.139-8.611l-195.877,113.089c-11.206,6.471-15.082,20.933-8.611,32.14l0,0
			C4889.723,3547.419,4904.185,3551.295,4915.391,3544.824z"/>
		<circle fill="#333333" cx="5345.77" cy="3542.908" r="67.172"/>
		<circle fill="#606161" cx="5345.77" cy="3542.908" r="37.982"/>
		<circle fill="#333333" cx="4887.625" cy="3542.908" r="67.172"/>
		<circle fill="#606161" cx="4887.624" cy="3542.908" r="37.981"/>
	</g>
	<path fill="#0887A6" d="M5575.969,2222.903c-18.31,54.789-62.871,218.388-1.952,367.333c3.884,9.496-3.113,19.896-13.374,19.896
		h-165.682c-5.049,0-9.754-2.611-12.35-6.942c-14.699-24.533-54.201-120.534,2.408-387.855c1.416-6.684,7.315-11.482,14.148-11.482
		h163.102C5572.148,2203.852,5579.1,2213.533,5575.969,2222.903z"/>
	<path fill="#099ECB" d="M5541.311,2226.007c-18.727,57.197-60.086,215.515-2.301,360.82c4.441,11.167-3.66,23.305-15.678,23.305
		H5362.75c-6.023,0-11.635-3.174-14.625-8.403c-15.258-26.676-52.097-123.613,2.848-384.428c1.649-7.831,8.568-13.449,16.57-13.449
		h157.67C5536.719,2203.852,5544.89,2215.072,5541.311,2226.007z"/>
</g>
<g>
	<rect x="2173.601" y="2450.95" fill="#9D6B29" width="2650.405" height="46.158"/>
	<rect x="2173.601" y="2474.029" fill="#7D551C" width="2650.405" height="23.079"/>
	<rect x="2424.03" y="2497.108" fill="#895B24" width="36.668" height="1109.966"/>
	<rect x="4509.834" y="2497.108" fill="#895B24" width="36.668" height="1109.966"/>
</g>
<g>
	<g>
		<path fill="#80C351" d="M6011.686,3017.748c-0.288,16.338-33.406,184.521-321.43,294.233c0,0,37.826-65.044,142.964-139.179
			c102.774-72.443,170.104-133.334,177.351-153.709c0.174-0.461,0.309-0.923,0.404-1.346
			C6011.397,3015.98,6011.725,3016.057,6011.686,3017.748z"/>
		<path fill="#80C351" d="M5699.463,3333.374c0,0-0.02,0-0.039-0.019c-2.787-1.346-182.08-87.244-217.043-124.782
			c-36.442-39.134-69.426-100.122-97.775-143.426c-14.59-22.277-27.947-39.864-39.941-47.399c-0.673-0.441-1.365-0.846-2.037-1.211
			C5349.643,3020.228,5575.122,3139.781,5699.463,3333.374z"/>
		<path fill="#80C351" d="M6057.432,2875.41c0,0-52.454,40.287-62.795,59.758c-19.662,37.057-85.705,80.42-161.109,114.21
			c-46.609,20.874-70.867,37.808-146.713,133.835c0.02-0.039,0.077-0.115,0.115-0.211c3.633-7.093,82.611-158.995,189.729-206.99
			c109.675-49.167,94.548-80.189,119.496-92.279C6021.123,2871.623,6057.432,2875.41,6057.432,2875.41z"/>
		<path fill="#80C351" d="M5694.926,3222.086c-44.631-64.294-139.928-113.442-166.414-130.087
			c-26.467-16.646-60.508-57.49-89.242-105.139c-28.755-47.648-129.357-66.562-129.357-66.562
			c94.567-24.199,173.219,26.467,192.133,56.721c18.912,30.254,55.971,70.349,109.674,109.674
			C5665.422,3126.039,5694.926,3222.086,5694.926,3222.086z"/>
		<path fill="#80C351" d="M6048.32,2653.014c-2.268,51.435-50.666,165.645-151.268,213.293
			c-99.026,46.899-198.053,143.657-201.127,146.656c0-0.02,0.038-0.077,0.076-0.115c1.076-1.25,2.153-2.672,3.268-4.248
			c21.777-30.869,54.453-119.766,175.083-179.35C6001.441,2766.455,6048.32,2653.014,6048.32,2653.014z"/>
		<path fill="#80C351" d="M5309.297,2731.876c-2.556-0.288-3.92-0.384-3.92-0.384S5306.606,2731.377,5309.297,2731.876z"/>
		<path fill="#80C351" d="M5699.463,3047.676c0,0-42.345,22.584-195.535-150.326c-102.658-115.902-157.496-150.865-182.079-161.379
			c-0.058-0.039-0.134-0.058-0.192-0.096c-5.631-2.384-9.648-3.479-12.281-3.999c24.775,2.769,158.918,22.643,226.709,134.259
			c74.809,123.167,135.277,164.818,163.301,181.502C5699.443,3047.656,5699.463,3047.676,5699.463,3047.676z"/>
		<path fill="#80C351" d="M5980.836,2594.217c0,0.02-0.02,0.058-0.02,0.076c-0.038,0.077-0.076,0.154-0.115,0.231
			c-2.998,6.804-51.857,116.362-93.625,169.854c-42.766,54.799-178.639,134.873-180.771,136.122
			c0.865-1.596,52.818-94.951,126.301-144.444C5906.163,2706.524,5979.702,2595.946,5980.836,2594.217z"/>
		<path fill="#80C351" d="M5710.11,2916.319c-0.038-0.019-0.058-0.019-0.097-0.019c-4.094-0.691-136.064-23.699-232.111-154.748
			c-97.584-133.123-49.936-143.714-129.355-225.402c0,0,0.02,0.02,0.076,0.038c2.999,1.711,99.372,57.605,169.355,210.238
			C5517.979,2746.427,5567.914,2843.396,5710.11,2916.319z"/>
		<path fill="#80C351" d="M5849.308,2659.51c-32.176,32.521-117.747,117.497-132.163,131.797v0.021
			c-0.018,0.019-0.057,0.038-0.076,0.057c-1.307,1.308-1.999,1.999-1.999,1.999s0.077-0.614,0.269-1.768
			c2.191-14.301,20.086-112.154,103.371-174.084c88.607-65.908,125.166-172.449,126.299-175.774c0.02-0.02,0.02-0.058,0.02-0.077
			C5947.296,2530.922,5884.502,2623.951,5849.308,2659.51z"/>
		<path fill="#80C351" d="M5717.088,2809.24c-0.039,0-0.097-0.02-0.174-0.058c-5.381-2.268-120.611-51.627-174.545-157.245
			c-55.183-108.1-74.096-159.533-105.83-185.271c0,0,0,0,0.02,0c3.152,1.845,104.428,61.833,159.515,196.61
			c0,0,23.392,49.82,120.706,145.675C5716.876,2809.029,5716.991,2809.145,5717.088,2809.24z"/>
		<path fill="#80C351" d="M5722.065,2685.516c-8.534-7.458-75.558-68.1-120.11-167.106
			c-47.592-105.772-63.506-141.369-82.381-148.98c0.576,0.115,4.844,1.057,11.609,3.671c0.211,0.076,0.441,0.174,0.653,0.27
			c26.429,10.379,88.896,45.688,122.302,154.113c30.58,99.236,52.396,137.602,62.507,151.518
			C5719.24,2682.575,5721.047,2684.535,5722.065,2685.516z"/>
		<path fill="#80C351" d="M5722.911,2686.266v0.019c0-0.019,0-0.019-0.019-0.019
			C5722.911,2686.266,5722.911,2686.266,5722.911,2686.266z"/>
		<path fill="#80C351" d="M5843.291,2348.612c0.039,0.096,0.078,0.173,0.115,0.269
			C5843.33,2348.708,5843.291,2348.612,5843.291,2348.612z"/>
		<path fill="#80C351" d="M5808.117,2533.171c-74.461,98.296-86.628,114.845-86.975,115.325c0-0.019,0-0.019,0-0.038
			c0.539-2.057,18.068-68.811,62.007-142.523c42.709-71.674,64.64-138.486,60.815-155.361c-0.039-0.154-0.097-0.308-0.135-0.462
			c-0.115-0.461-0.25-0.864-0.424-1.23C5845.791,2354.109,5881.311,2436.567,5808.117,2533.171z"/>
		<path fill="#945D25" d="M5714.491,3467.701c-1.286-1.934-1.698-2.951-2.44-4.31c-0.734-1.327-1.191-2.518-1.748-3.76l-1.607-3.7
			c-0.48-1.227-0.893-2.44-1.341-3.661c-0.843-2.438-1.834-4.879-2.543-7.315l-2.151-7.309l-1.072-3.654
			c-0.343-1.218-0.595-2.44-0.896-3.66l-1.734-7.321c-0.548-2.442-1.222-4.876-1.664-7.323l-1.371-7.338l-1.367-7.336
			c-0.461-2.444-0.935-4.888-1.24-7.34l-2.088-14.699l-1.042-7.346l-0.755-7.357l-1.504-14.711l-0.75-7.354l-0.504-7.359
			l-0.98-14.716c-0.306-4.904-0.697-9.808-0.932-14.712l-0.506-14.711l-0.505-14.709c-0.154-4.902-0.397-9.805-0.359-14.703
			l-0.149-29.394c0.077-78.362,5.123-156.451,12.183-234.251c3.291-38.953,7.403-77.688,10.894-116.552
			c3.529-38.841,6.977-77.693,9.723-116.584c0.646-9.724,1.471-19.444,1.973-29.173l1.594-29.188
			c0.695-19.458,1.508-38.951,0.663-58.38c-0.06-4.869-0.504-9.704-0.899-14.546c-0.275-4.857-1.072-9.65-1.682-14.472
			c-0.719-4.807-1.616-9.587-2.508-14.38c-0.937-4.785-1.857-9.575-2.691-14.391c-3.482-19.239-5.019-38.734-6.195-58.198
			c1.576,19.441,3.511,38.875,7.376,57.978c0.929,4.778,1.948,9.547,2.983,14.314c0.989,4.775,1.992,9.569,2.814,14.39
			c0.714,4.841,1.615,9.666,1.994,14.549c0.499,4.871,1.047,9.743,1.207,14.632c1.25,19.546,0.836,39.096,0.539,58.628
			l-0.996,29.275c-0.303,9.764-0.928,19.5-1.376,29.253c-1.95,38.998-4.601,77.942-7.335,116.878
			c-2.69,38.921-6.018,77.866-8.496,116.732c-5.451,77.722-8.871,155.639-7.35,233.354l0.746,29.123
			c0.062,4.856,0.402,9.693,0.654,14.537l0.797,14.523l0.797,14.521c0.332,4.832,0.816,9.646,1.218,14.469l1.26,14.46l0.644,7.227
			l0.885,7.185l1.768,14.366l0.883,7.182l1.161,7.117l2.318,14.229c0.345,2.384,0.851,4.718,1.343,7.057l1.459,7.02l1.457,7.017
			c0.471,2.345,1.156,4.603,1.722,6.908l1.778,6.881c0.307,1.141,0.568,2.306,0.91,3.427l1.062,3.344l2.114,6.687
			c0.695,2.234,1.607,4.296,2.395,6.453c0.412,1.06,0.803,2.15,1.232,3.186l1.375,2.979c0.459,0.974,0.898,2.057,1.383,2.847
			c0.43,0.779,1.071,1.967,1.15,2.06c3.444,4.059,2.947,10.141-1.111,13.586s-10.141,2.948-13.586-1.11
			c-0.233-0.275-0.449-0.561-0.646-0.853L5714.491,3467.701z"/>
		<path fill="#80C351" d="M5723.68,2459.959c-12.936,100.659-6.746,146.636-6.111,150.941c0.019,0.115,0.038,0.211,0.057,0.326
			c0,0-37.057-53.703-34.039-178.504c2.613-107.08-14.281-145.117-19.125-153.767c-0.154-0.25-0.289-0.462-0.404-0.673
			c-0.096-0.174-0.191-0.326-0.288-0.461c-0.173-0.308-0.327-0.539-0.442-0.692c-0.038-0.058-0.076-0.115-0.096-0.153
			C5665.807,2279.667,5737.059,2355.955,5723.68,2459.959z"/>
		<path opacity="0.1" d="M6011.686,3017.748c-0.288,16.338-33.406,184.521-321.43,294.233c0,0,283.084-168.605,320.314-292.888
			c0.154-0.442,0.27-0.903,0.404-1.346H6011.686z"/>
		<path opacity="0.1" d="M5699.424,3333.355c-2.787-1.346-182.08-87.244-217.043-124.782
			c-36.442-39.134-69.426-100.122-97.775-143.426C5529.28,3228.236,5696.578,3331.605,5699.424,3333.355z"/>
		<path opacity="0.1" d="M6057.412,2875.129c0,0-52.453,40.287-62.795,59.759c-19.662,37.058-85.705,80.419-161.109,114.21
			c-46.61,20.873-70.867,37.807-146.713,133.835c0.02-0.039,0.077-0.115,0.115-0.212c3.941-6.343,85.514-136.852,164.07-166.184
			c80.496-30.062,129.395-92.779,132.854-96.238C5987.275,2916.839,6020.354,2882.779,6057.412,2875.129z"/>
		<path opacity="0.1" d="M5694.926,3222.086c-44.631-64.294-139.928-113.442-166.414-130.087
			c-26.467-16.646-60.508-57.49-89.242-105.139c-28.755-47.648-129.357-66.562-129.357-66.562s102.486,2.96,123.725,39.019
			c21.24,36.058,85.938,103.216,136.314,126.435C5620.33,3108.971,5686.046,3205.325,5694.926,3222.086z"/>
		<path opacity="0.1" d="M6048.32,2653.014c-2.268,51.435-50.666,165.645-151.268,213.293
			c-99.026,46.899-198.053,143.657-201.127,146.656c0-0.02,0.038-0.077,0.076-0.115c0.385-0.52,1.5-1.98,3.268-4.248
			c17.453-22.432,99.257-123.571,177.39-154.979C5964.71,2818.236,6044.688,2698.836,6048.32,2653.014z"/>
		<path opacity="0.1" d="M5980.701,2594.524c-2.998,6.804-51.857,116.362-93.625,169.854
			c-42.766,54.799-178.639,134.873-180.771,136.122c1.576-1.634,69.944-72.309,113.23-107.118
			C5863.243,2758.247,5950.082,2659.798,5980.701,2594.524z"/>
		<path opacity="0.1" d="M5699.463,3047.676c0,0-42.345,22.584-195.535-150.326c-102.658-115.902-157.496-150.865-182.079-161.379
			c99.353,38.037,136.454,72.707,165.953,113.384c123.862,170.801,208.354,197.014,211.583,198.282
			C5699.443,3047.656,5699.463,3047.676,5699.463,3047.676z"/>
		<path fill="#80C351" d="M5715.338,2791.615l1.73-0.231c-1.307,1.308-1.999,1.999-1.999,1.999S5715.146,2792.769,5715.338,2791.615
			z"/>
		<path opacity="0.1" d="M5849.308,2659.51c-32.176,32.521-117.747,117.497-132.163,131.797
			c1.673-3.171,55.779-105.195,112.942-142.791c58.028-38.153,101.255-129.664,114.921-206.759c0.02-0.02,0.02-0.058,0.02-0.077
			C5947.296,2530.922,5884.502,2623.951,5849.308,2659.51z"/>
		<path opacity="0.1" d="M5808.117,2533.171c-74.461,98.296-86.628,114.845-86.975,115.325c0-0.019,0-0.019,0-0.038
			c1.365-2.71,48.706-97.104,88.494-149.884c39.402-52.281,43.227-120.573,34.328-148.001c-0.039-0.154-0.097-0.308-0.135-0.462
			c-0.173-0.519-0.365-1.019-0.539-1.499c0.039,0.096,0.078,0.173,0.115,0.269
			C5845.791,2354.109,5881.311,2436.567,5808.117,2533.171z"/>
		<path opacity="0.1" d="M5723.68,2459.959c-12.936,100.659-6.746,146.636-6.111,150.941
			c-19.99-109.559-8.938-148.154-2.499-195.496c5.862-43.17-42.036-122.667-50.608-136.448c-0.154-0.25-0.289-0.462-0.404-0.673
			c-0.115-0.174-0.211-0.308-0.288-0.461c-0.192-0.289-0.346-0.539-0.442-0.692c-0.038-0.058-0.076-0.115-0.096-0.153
			C5665.807,2279.667,5737.059,2355.955,5723.68,2459.959z"/>
		<path opacity="0.1" d="M5710.014,2916.301c-4.094-0.691-136.064-23.699-232.111-154.748
			c-97.584-133.123-49.936-143.714-129.355-225.402c0,0,0.02,0.02,0.076,0.038c2.652,2.134,80.074,64.524,166.684,235.918
			C5515.307,2772.106,5587.924,2878.551,5710.014,2916.301z"/>
		<path opacity="0.1" d="M5716.914,2809.183c-5.381-2.268-120.611-51.627-174.545-157.245
			c-55.183-108.1-74.096-159.533-105.83-185.271c0,0,0,0,0.02,0c2.691,1.902,80.574,57.682,130.779,179.312
			c51.107,123.782,149.441,162.974,149.441,162.974L5716.914,2809.183z"/>
		<path opacity="0.1" d="M5722.911,2686.266v0.019c0-0.019,0-0.019-0.019-0.019c0-0.02-0.02-0.02-0.039-0.02
			c-0.02-0.02-0.038-0.039-0.058-0.058c-0.019-0.02-0.019-0.038-0.038-0.038c-0.02-0.02-0.058-0.039-0.096-0.077
			c-0.058-0.058-0.097-0.097-0.174-0.153c-0.057-0.059-0.115-0.115-0.191-0.174c-0.078-0.058-0.154-0.134-0.231-0.23
			c-8.534-7.458-75.558-68.1-120.11-167.106c-47.592-105.772-63.506-141.369-82.381-148.98c-0.02,0-0.039-0.02-0.059-0.02
			c0,0,4.479,0.577,11.668,3.69c0.211,0.076,0.441,0.174,0.653,0.27c19.354,8.591,56.989,35.116,80.228,115.306
			c26.775,92.395,85.264,167.298,104.581,190.325C5720.278,2683.344,5722.527,2685.843,5722.911,2686.266z"/>
	</g>
	<path fill="#D79128" d="M5817.613,3605.396h-233.842c-14.592,0-26.843-10.988-28.424-25.494l-22.613-207.512
		c-1.844-16.916,11.406-31.688,28.422-31.688h279.071c17.017,0,30.267,14.772,28.423,31.688l-22.614,207.512
		C5844.455,3594.407,5832.205,3605.396,5817.613,3605.396z"/>
	<path fill="#FCAF17" d="M5884.752,3411.803h-364.643c-9.77,0-17.69-7.92-17.69-17.689v-35.722c0-9.771,7.921-17.69,17.69-17.69
		h364.643c9.77,0,17.689,7.92,17.689,17.69v35.722C5902.441,3403.883,5894.521,3411.803,5884.752,3411.803z"/>
</g>
<g>
	<path fill="#E8D6C1" d="M3420.038,2211.913c0,0,3.966-101.408-23.96-118.617c-56.224-34.646-115.445,1.948-54.224,118.617H3420.038
		z"/>
	<path fill="#171717" d="M3400.588,3491.739l22.07,102.107c1.284,5.939-3.242,11.549-9.319,11.549h-276.436
		c-10.312,0-13.295-14.107-3.854-18.254c44.739-19.648,154.034-53.312,177.507-91.797c1.578-2.588,4.266-4.284,7.283-4.556
		l72.574-6.531C3395.208,3483.826,3399.571,3487.035,3400.588,3491.739z"/>
	<path fill="#171717" d="M3660.221,3378.862l68.677,78.718c3.995,4.579,2.744,11.677-2.575,14.614l-241.995,133.623
		c-9.027,4.985-18.458-5.923-12.197-14.116c29.667-38.826,109.074-121.127,111.019-166.164c0.131-3.027,1.663-5.812,4.174-7.509
		l60.376-40.798C3651.686,3374.535,3657.057,3375.235,3660.221,3378.862z"/>
	<path fill="#0E374C" d="M4145.607,2727.968c0,0,10.594,261.104-634.809,338.208l185.438,335.916l-144.066,59.133l-204.329-431.193
		l-12.535-89.201L4145.607,2727.968z"/>
	<path fill="#194967" d="M3761.503,2693.484l-451.507,130.439c-50.506,14.591-83.074,63.539-77.022,115.762l64.726,558.56
		c0,0,80.226,25.731,122.846-12.204l-42.62-496.97c0,0,736.241,92.87,769.998-267.7L3761.503,2693.484z"/>
	<path fill="#E8D6C1" d="M3705.477,1694.907c0,0-38.175,167.633,40.663,230.703c0,0,24.189,4.149,54.418-9.958l16.95,79.667
		l128.629-9.958l-31.535-258.918l-62.239-87.966h-94.604L3705.477,1694.907z"/>
	<path fill="#7C471D" d="M3702.986,1733.081c0,0-39.834-44.813,0-82.157c0,0-9.129-87.136,135.268-59.75
		c0,0,71.369-9.958,97.925,39.833c0,0,77.178,114.521,0,266.387c0,0-141.077,27.385-155.185-83.816c0,0,1.659-60.435-38.174-70.466
		C3742.82,1743.112,3720.414,1752.167,3702.986,1733.081z"/>
	<g>
		<path fill="#333333" d="M3970.28,3112.575c0,19.961-41.94,46.47-92.047,46.47c-50.107,0-89.408-26.509-89.408-46.47
			c0-19.962,39.301-25.817,89.408-25.817C3928.34,3086.758,3970.28,3092.613,3970.28,3112.575z"/>
		<path fill="#099ECB" d="M4077.989,3081.941h-396.874c-38.463,0-69.934-31.471-69.934-69.934l0,0
			c0-38.464,31.471-69.934,69.934-69.934h396.874c38.464,0,69.934,31.47,69.934,69.934l0,0
			C4147.923,3050.471,4116.453,3081.941,4077.989,3081.941z"/>
		<path fill="#333333" d="M4084.123,3112.575h-398.711c-7.54,0-13.709-6.169-13.709-13.71v-3.215c0-7.54,6.169-13.709,13.709-13.709
			h398.711c7.541,0,13.71,6.169,13.71,13.709v3.215C4097.833,3106.406,4091.664,3112.575,4084.123,3112.575z"/>
		<path fill="#333333" d="M3880.416,3443.039L3880.416,3443.039c-12.489,0-22.708-10.219-22.708-22.708v-269.792
			c0-12.489,10.219-22.707,22.708-22.707l0,0c12.489,0,22.708,10.218,22.708,22.707v269.792
			C3903.124,3432.82,3892.905,3443.039,3880.416,3443.039z"/>
		<path fill="#333333" d="M4055.572,3546.188l-177.721-102.607c-10.168-5.871-13.684-18.993-7.814-29.16l0.001-0.001
			c5.87-10.167,18.992-13.684,29.16-7.813l177.722,102.607c10.168,5.871,13.684,18.993,7.813,29.161l0,0
			C4078.862,3548.541,4065.74,3552.058,4055.572,3546.188z"/>
		<path fill="#333333" d="M3704.767,3546.188l177.722-102.607c10.168-5.871,13.684-18.993,7.813-29.16v-0.001
			c-5.87-10.167-18.993-13.684-29.161-7.813l-177.721,102.607c-10.168,5.871-13.684,18.993-7.813,29.161l0,0
			C3681.477,3548.541,3694.599,3552.058,3704.767,3546.188z"/>
		<circle fill="#333333" cx="4095.255" cy="3544.449" r="60.946"/>
		<circle fill="#606161" cx="4096.63" cy="3545.824" r="34.461"/>
		<circle fill="#333333" cx="3681.384" cy="3546.259" r="60.946"/>
		<circle fill="#606161" cx="3681.384" cy="3546.259" r="34.462"/>
	</g>
	<path fill="#FCAF17" d="M3788.137,2002.662l5.8-34.081c0,0,87.958-40.997,180.749-19.048l14.498,34.514
		c0,0,273.787,16.265,156.424,743.921c0,0-213.603,115.017-417.815-30.515c0,0-51.641-523.251-61.029-637.189L3788.137,2002.662z"/>
	<path fill="#FCAF17" d="M3666.763,2060.264c0,0-227.105,329.629-181.015,434.221c0,0,25.93,49.637,87.421,21.273
		C3634.659,2487.394,3817.64,2211.049,3666.763,2060.264z"/>
	<path fill="#099ECB" d="M4208.479,2550.413h-315.756c-28.699,0-52.18-23.481-52.18-52.18v-315.756
		c0-28.699,23.48-52.181,52.18-52.181h315.756c28.699,0,52.181,23.481,52.181,52.181v315.756
		C4260.66,2526.932,4237.179,2550.413,4208.479,2550.413z"/>
	<path fill="#0887A6" d="M4225.645,2550.413h-315.756c-28.699,0-52.181-23.481-52.181-52.18v-315.756
		c0-28.699,23.481-52.181,52.181-52.181h315.756c28.698,0,52.18,23.481,52.18,52.181v315.756
		C4277.824,2526.932,4254.343,2550.413,4225.645,2550.413z"/>
	<circle fill="#333333" cx="4084.307" cy="2349.389" r="92.156"/>
	<path fill="none" stroke="#333333" stroke-width="17" stroke-miterlimit="10" d="M3879.553,3112.575
		c0,0,204.754-106.972,204.754-763.187"/>
	<path fill="#FCAF17" d="M3499.826,2510.996l-158.963-302.929c0,0,24.949-45.479,69.301-27.461l201.018,216.604L3499.826,2510.996z"
		/>
</g>
<g>
	<g>
		<path fill="#1D4463" d="M4665.715,1313.221h-487.716c-112.618,0-204.76-92.142-204.76-204.759v-22.277
			c0-112.618,92.142-204.76,204.76-204.76h487.716c112.617,0,204.76,92.142,204.76,204.76v22.277
			C4870.475,1221.079,4778.332,1313.221,4665.715,1313.221z"/>
		<path fill="#1D4463" d="M4496.496,1313.221l125.451,97.987c7.041,5.5,16.795-1.95,13.342-10.189l-36.793-87.798H4496.496z"/>
	</g>
	<circle fill="#FFFFFF" cx="4619.983" cy="1088.813" r="61.304"/>
	<circle fill="#FFFFFF" cx="4427.013" cy="1097.323" r="61.304"/>
	<circle fill="#FFFFFF" cx="4234.044" cy="1105.832" r="61.304"/>
</g>
<g>
	<g>
		<path fill="#F6892E" d="M2420.143,1502.96h356.317c82.277,0,149.594-67.317,149.594-149.594v-16.275
			c0-82.277-67.317-149.594-149.594-149.594h-356.317c-82.277,0-149.594,67.317-149.594,149.594v16.275
			C2270.549,1435.644,2337.866,1502.96,2420.143,1502.96z"/>
		<path fill="#F6892E" d="M2543.771,1502.96l-91.653,71.588c-5.144,4.018-12.27-1.425-9.747-7.444l26.88-64.144H2543.771z"/>
	</g>
	<circle fill="#FFFFFF" cx="2453.554" cy="1339.013" r="44.788"/>
	<circle fill="#FFFFFF" cx="2594.535" cy="1345.229" r="44.788"/>
	<circle fill="#FFFFFF" cx="2735.515" cy="1351.446" r="44.788"/>
</g>
<g>
	<path fill="#FFF0D8" d="M1910.036,2007.025l65.97,158.323c0,0,90.007,81.779,164.894,141.654
		c39.823,31.833,75.36,57.463,90.868,61.339c44.669,11.157,298.405-89.316,324.789-101.787s37.562-0.732,84.234,0
		c46.694,0.732,119.771-86.99,123.842-109.325c4.049-22.335-136.011-2.024-136.011-2.024s28.409-50.743,12.169-63.838
		c-16.24-13.096-85.247,71.957-114.688,97.329c-29.42,25.371-255.761,46.693-281.132,49.73c-4.372,0.517-15.637-7.861-31.316-22.098
		c-75.295-68.403-252.099-272.065-252.099-272.065L1910.036,2007.025z"/>
	<path fill="#BB3026" d="M1910.036,2007.025l65.97,158.323c0,0,90.007,81.779,164.894,141.654
		c20.289-38.144,49.882-69.718,72.754-90.674c-75.295-68.403-252.099-272.065-252.099-272.065L1910.036,2007.025z"/>
	<path fill="#171717" d="M2439.145,3553.757c0,0-8.573,81.769,8.799,85.343s293.394-16.69,307.896-36.386
		c14.501-19.694-17.896-30.458-17.896-30.458l-183.013-79.453L2439.145,3553.757z"/>
	<path fill="#171717" d="M2235.309,3464.174c0,0-41.785,47.658-32.44,57.64s192.12,120.061,210.014,114.116
		c17.894-5.945,2.289-27.139,2.289-27.139l-79.849-131.461L2235.309,3464.174z"/>
	<path fill="#103D54" d="M2051.264,2605.863c0,0,427.133,184.85,413.536,324.566c-13.462,138.326-105.396,576.343-105.396,576.343
		s-84.379,19.679-133.299-47.44c0,0,57.034-421.992,47.629-449.926c-9.404-27.934-447.655-251.762-447.655-251.762l-11.921-129.782
		L2051.264,2605.863z"/>
	<g>
		<g>
			<path fill="#333333" d="M1666.128,3075.047h282.677v-38.768h-282.296c-7.904-0.209-158.892-6.64-158.892-184.826
				c0-93.369,28.977-129.691,59.655-168.146c33.907-42.502,68.968-86.45,68.968-196.073h-38.768
				c0,96.054-29.389,132.894-60.505,171.896c-33.489,41.978-68.117,85.384-68.117,192.323c0,113.145,53.654,168.115,98.664,194.307
				c48.327,28.122,96.426,29.25,98.45,29.284L1666.128,3075.047z"/>
		</g>
		<g>
			<path fill="#333333" d="M1846.346,3044.001c0,22.543,47.363,52.479,103.949,52.479c56.587,0,100.969-29.937,100.969-52.479
				c0-22.542-44.382-29.155-100.969-29.155C1893.708,3014.846,1846.346,3021.459,1846.346,3044.001z"/>
			<path fill="#099ECB" d="M1724.708,3009.406h448.193c43.438,0,78.977-35.539,78.977-78.977l0,0
				c0-43.438-35.539-78.977-78.977-78.977h-448.193c-43.437,0-78.977,35.539-78.977,78.977l0,0
				C1645.732,2973.867,1681.271,3009.406,1724.708,3009.406z"/>
			<path fill="#333333" d="M1717.781,3044.001h450.268c8.516,0,15.482-6.967,15.482-15.482v-3.63
				c0-8.516-6.967-15.482-15.482-15.482h-450.268c-8.515,0-15.482,6.967-15.482,15.482v3.63
				C1702.299,3037.034,1709.266,3044.001,1717.781,3044.001z"/>
			<path fill="#333333" d="M1947.83,3417.197L1947.83,3417.197c14.104,0,25.644-11.54,25.644-25.645v-304.678
				c0-14.104-11.54-25.645-25.644-25.645l0,0c-14.104,0-25.645,11.54-25.645,25.645v304.678
				C1922.186,3405.657,1933.726,3417.197,1947.83,3417.197z"/>
			<path fill="#333333" d="M1750.024,3533.684l200.703-115.876c11.482-6.63,15.453-21.448,8.824-32.931l0,0
				c-6.629-11.483-21.449-15.454-32.931-8.824l-200.702,115.875c-11.483,6.63-15.454,21.449-8.824,32.932l0,0
				C1723.723,3536.342,1738.542,3540.313,1750.024,3533.684z"/>
			<path fill="#333333" d="M2146.192,3533.684l-200.703-115.876c-11.482-6.63-15.453-21.448-8.824-32.931l0,0
				c6.629-11.483,21.448-15.454,32.931-8.824l200.703,115.875c11.482,6.63,15.453,21.449,8.823,32.932l0,0
				C2172.494,3536.342,2157.675,3540.313,2146.192,3533.684z"/>
			<circle fill="#333333" cx="1705.21" cy="3531.72" r="68.827"/>
			<circle fill="#606161" cx="1705.21" cy="3531.72" r="38.918"/>
			<circle fill="#333333" cx="2174.644" cy="3531.72" r="68.827"/>
			<circle fill="#606161" cx="2174.643" cy="3531.72" r="38.918"/>
		</g>
		<path fill="#0887A6" d="M1469.34,2202.455c18.76,56.14,64.42,223.768,2,376.383c-3.979,9.731,3.19,20.387,13.703,20.387h169.764
			c5.173,0,9.995-2.676,12.654-7.113c15.062-25.138,55.536-123.504-2.468-397.411c-1.45-6.849-7.496-11.767-14.496-11.767h-167.12
			C1473.254,2182.934,1466.132,2192.854,1469.34,2202.455z"/>
		<path fill="#099ECB" d="M1504.853,2205.636c19.187,58.606,61.565,220.823,2.356,369.71c-4.55,11.441,3.75,23.879,16.063,23.879
			h164.54c6.172,0,11.92-3.252,14.984-8.61c15.634-27.333,53.38-126.659-2.917-393.899c-1.69-8.023-8.779-13.781-16.979-13.781
			h-161.554C1509.558,2182.934,1501.185,2194.432,1504.853,2205.636z"/>
	</g>
	<path fill="#194967" d="M1654.807,2599.225c0,0-86.466,266.941,288.108,291.631c0,0,328.563,34.79,333.051,81.924
		c4.489,47.135,145.508,577.389,145.508,577.389s33.867,10.936,85.942-18.448c22.6-12.752,59.038-40.385,59.038-40.385
		s-92.973-604.095-134.496-639.882c-41.523-35.788-464.61-233.303-464.61-233.303L1654.807,2599.225z"/>
	<path fill="#171717" d="M2020.925,1632.832c0,0,109.261-71.74,18.207-92.174c-64.818-14.545-68.276,14.793-95.587,0
		c-27.311-14.793-58.035-30.724-96.725,0c-38.69,30.725-52.346,19.989-59.173,37.305s-18.207,63.972,0,117.456
		c0,0-14.456,68.992,26.51,89.475l115.733-72.406L2020.925,1632.832z"/>
	<path fill="#FFF0D8" d="M2038.122,1620.057c0,0,29.82,204.979-30.771,216.466c0,0-81.354-1.405-84.508,20.511
		c-3.154,21.916-23.781,68.326-23.781,68.326s-72.193-11.603-101.843-39.964l6.359-48.873
		C1803.578,1836.523,1827.303,1569.78,2038.122,1620.057z"/>
	<path fill="#171717" d="M1964.809,1599.203c0,0-83.223,144.56-150.652,185.691l15.291-162.486l60.59-41.253L1964.809,1599.203z"/>
	
		<ellipse transform="matrix(-0.866 0.5 -0.5 -0.866 4378.0977 2195.1714)" fill="#FFF0D8" cx="1894.954" cy="1684.136" rx="33.131" ry="39.109"/>
	<path fill="#BB3026" d="M1905.026,1911.301c0,0-56.541-0.134-107.808-25.905c0,0-93.691,29.707-119.798,68.869
		c-26.107,39.161-87.651,147.718-22.613,644.96c0,0,238.361,104.541,396.457,6.639c0,0-33.457-572.716-54.027-613.525
		C1984.074,1966.224,1959.669,1930.342,1905.026,1911.301z"/>
	<path fill="#FFF0D8" d="M1678.241,2350.725c0.47,1.9,0.96,3.801,1.451,5.721c0,0,16.284,107.84,42.396,136.73
		c26.133,28.891,202.337,147.314,232.188,192.57c29.83,45.257,57.495,103.754,89.532,99.177
		c53.92-7.702,105.919-45.257,79.93-92.434c-26.01-47.178-95.335-25.029-125.186-53.92s-171.383-189.689-181.006-228.204
		c-3.024-12.096-5.966-50.385-8.561-97.235c-5.66-102.364-9.746-245.53-9.746-245.53s-8.99-96.234-119.547-91.453
		C1679.692,1976.146,1602.5,2051.233,1678.241,2350.725z"/>
	<path fill="#BB3026" d="M1675.899,2349.109c54.146-28.84,104.803-37.476,137.82-39.63
		c-5.966-107.904-10.273-258.819-10.273-258.819s-9.477-101.442-126.018-96.403
		C1677.429,1954.257,1596.059,2033.408,1675.899,2349.109z"/>
</g>
<g>
	<path fill="#D7D6D6" d="M2190.697,2450.95h310.835c6.031,0,10.965-4.935,10.965-10.965l0,0c0-6.031-4.935-10.966-10.965-10.966
		h-310.835c-6.031,0-10.965,4.935-10.965,10.966l0,0C2179.731,2446.016,2184.666,2450.95,2190.697,2450.95z"/>
	<path fill="#D7D6D6" d="M2509.43,2412.098l68.052-362.355c1.269-6.755,7.167-11.649,14.04-11.649h235.084
		c8.934,0,15.675,8.106,14.047,16.89l-67.168,362.355c-1.255,6.771-7.161,11.682-14.047,11.682h-235.968
		C2514.524,2429.02,2507.779,2420.891,2509.43,2412.098z"/>
	<path fill="#E9E8E8" d="M2515.675,2412.098l68.052-362.355c1.269-6.755,7.167-11.649,14.041-11.649h235.084
		c8.933,0,15.675,8.106,14.047,16.89l-67.168,362.355c-1.255,6.771-7.161,11.682-14.046,11.682h-235.968
		C2520.769,2429.02,2514.023,2420.891,2515.675,2412.098z"/>
	<path fill="#E9E8E8" d="M2510.437,2450.95h257.121c5.504,0,10.007-4.503,10.007-10.007v-1.917c0-5.503-4.503-10.007-10.007-10.007
		h-257.121c-5.503,0-10.006,4.504-10.006,10.007v1.917C2500.431,2446.447,2504.934,2450.95,2510.437,2450.95z"/>
	<path fill="#B7B7B8" d="M2456.063,2444.781h27.484c2.808,0,5.104-2.297,5.104-5.104l0,0c0-2.808-2.297-5.104-5.104-5.104h-27.484
		c-2.808,0-5.104,2.297-5.104,5.104l0,0C2450.958,2442.484,2453.255,2444.781,2456.063,2444.781z"/>
	<path fill="#B7B7B8" d="M2409.262,2444.781h27.485c2.808,0,5.104-2.297,5.104-5.104l0,0c0-2.808-2.297-5.104-5.104-5.104h-27.485
		c-2.808,0-5.104,2.297-5.104,5.104l0,0C2404.157,2442.484,2406.454,2444.781,2409.262,2444.781z"/>
</g>
</svg>
